<svg xmlns="http://www.w3.org/2000/svg" xmlns:xlink="http://www.w3.org/1999/xlink" xml:space="preserve" version="1.1" style="shape-rendering:geometricPrecision; text-rendering:geometricPrecision; image-rendering:optimizeQuality; fill-rule:evenodd; clip-rule:evenodd" viewBox="0 0 3887 4991"><defs><style type="text/css">
    .str0 {stroke:#FEFEFE;stroke-width:2.95986}
    .fil0 {fill:#FEFEFE}
    .fil1 {fill:#3E4095}
    .fil3 {fill:#ED3237}
    .fil2 {fill:#FDFDFE}
   </style></defs><g id="Layer_x0020_1"><metadata id="CorelCorpID_0Corel-Layer"></metadata><path class="fil0" d="M2649 164c-233,-96 -540,-153 -822,-132 -287,21 -526,88 -752,202 -151,77 -270,159 -389,265l-95 86c-48,47 -126,138 -168,191 -445,573 -523,1371 -191,2026 42,84 80,148 132,223 29,40 71,101 103,137 38,42 74,85 114,126 50,50 103,95 158,141 96,80 211,155 326,214 289,148 635,232 986,208 365,-25 621,-118 904,-287l142 -98 130 -109c47,-42 84,-86 121,-120 29,-28 59,-70 82,-96 108,-122 232,-350 287,-489 96,-242 152,-530 133,-822 -22,-345 -121,-635 -287,-903 -24,-39 -91,-135 -124,-174 -30,-35 -43,-56 -82,-99l-151 -148c-12,-11 -22,-16 -33,-27 -43,-38 -62,-49 -99,-78 -74,-59 -176,-117 -260,-162 -54,-28 -108,-51 -165,-75z"></path><path class="fil1" d="M1459 4413l32 139c25,115 68,330 95,424l120 0c24,-90 45,-180 69,-270l67 -262c2,-6 2,-5 4,-8l1 540 200 0 -2 -748 -272 0 -102 411c-10,-17 -38,-171 -45,-206 -14,-66 -26,-139 -42,-205l-281 0 0 748 153 0 3 -563z"></path><polygon class="fil1" points="201,4670 359,4670 360,4976 559,4977 559,4228 359,4228 359,4518 201,4517 200,4228 1,4228 1,4976 201,4977 "></polygon><path class="fil1" d="M2349 4760c-7,-15 -4,-475 -2,-531l-199 0 0 531c-2,58 21,111 47,147 59,82 194,95 292,78 212,-38 196,-204 196,-376 0,-58 4,-350 -1,-381l-165 0c-5,40 -1,372 -1,443 0,66 7,151 -47,174 -66,29 -127,-20 -120,-85z"></path><path class="fil1" d="M3390 4976l491 0c7,-26 1,-115 3,-150 -39,1 -279,5 -298,-2l3 -152c9,-7 191,-3 198,-2l-1 -145 -197 -3c-6,-8 -3,-99 -3,-114 0,-6 0,-14 0,-20 0,-3 1,-5 1,-8l2 -4c9,-7 284,-3 295,-3l-1 -144 -497 0c7,45 2,139 2,189 0,66 -4,536 2,558z"></path><path class="fil1" d="M1054 4702c-3,45 -3,90 -27,122 -19,25 -69,38 -107,20 -63,-31 -62,-145 -62,-229 0,-79 0,-200 49,-244 31,-28 76,-23 102,6 24,26 26,69 32,112l185 0c6,-38 -10,-101 -24,-132 -19,-41 -38,-64 -67,-87 -129,-101 -493,-114 -493,332 0,196 68,354 241,383 92,16 196,-2 251,-52 27,-24 49,-46 68,-89 15,-32 30,-89 24,-129l-172 -13z"></path><polygon class="fil1" points="2731,4374 2910,4375 2911,4976 3111,4976 3111,4374 3288,4374 3287,4228 2730,4228 "></polygon><path class="fil1" d="M3390 4976c-6,-22 -2,-492 -2,-558 0,-50 5,-144 -2,-189l497 0 1 144c-11,0 -286,-4 -295,3l-2 4c0,3 -1,5 -1,8 0,6 0,14 0,20 0,15 -3,106 3,114l197 3 1 145c-7,-1 -189,-5 -198,2l-3 152c19,7 259,3 298,2 -2,35 4,124 -3,150l6 -1 0 -149 -3 0 -294 -3 -1 -151c31,1 183,4 198,-2l2 -147 -200 -1 0 -146c41,1 276,5 298,-3l0 -144c-24,-9 -212,-3 -253,-3 -46,0 -222,-3 -243,1 0,0 -2,2 -2,1 -1,-1 -2,1 -5,1l0 738c1,17 -1,5 6,9z"></path><path class="fil1" d="M2148 4760l0 -531 199 0c-2,56 -5,516 2,531l-1 -532c-19,-5 -186,-5 -203,0 -3,34 -1,421 -1,502 1,6 0,12 1,17 0,11 -1,7 3,13z"></path><path class="fil0 str0" d="M1920 454c-1,72 -15,108 -40,164 -30,67 -29,102 3,164 16,-34 29,-69 40,-115 9,14 14,26 25,41 10,13 19,24 27,39 3,-16 -7,-53 -3,-82 5,-32 22,-49 19,-82 -4,-31 -48,-105 -65,-124l-2 -2 -2 -2 -2 -1z"></path><path class="fil0 str0" d="M1734 724c-9,-19 -16,-38 -19,-63 -3,-30 4,-51 3,-76 -5,28 -36,73 -33,150 2,58 19,17 39,51 13,22 13,51 18,78 -5,-25 26,-57 -8,-140z"></path><path class="fil2" d="M2066 1061c-7,12 -9,41 -29,73 -15,25 -32,38 -45,58 57,-1 50,-12 45,77 47,8 99,52 114,57 13,-13 39,-42 53,-51 11,3 58,51 61,61 -6,11 -41,44 -52,53 17,36 65,80 73,178 87,4 82,-19 79,69 -1,33 -14,20 -76,22l-4 10c0,3 -2,10 -2,14 -12,59 -35,104 -68,151l50 55c-3,10 -52,57 -61,61 -11,-5 -43,-40 -52,-50 -23,8 -69,53 -148,66 -2,20 -3,132 -12,140 -9,7 -121,7 -129,0 -13,-14 -8,-111 -10,-138 -27,-11 -53,-16 -80,-28 -23,-11 -55,-36 -70,-41 -10,15 -40,45 -55,50 -10,-7 -55,-53 -58,-62 15,-20 37,-31 51,-53 -12,-23 -29,-37 -46,-79 -14,-35 -16,-62 -27,-97 -19,-1 -61,4 -73,-6 -9,-7 -5,-13 -4,-38 2,-52 -4,-50 35,-48 14,1 29,1 43,2 9,-98 57,-142 72,-178 -9,-9 -15,-18 -24,-28 -34,-38 -34,-24 6,-60 38,-34 29,-37 58,-1 8,8 18,18 26,25 86,-54 73,-36 118,-61 3,-21 -1,-36 -1,-53 1,-25 5,-18 45,-20 -72,-50 -74,-115 -83,-126 -73,-9 -134,-19 -211,-22 -139,-7 -274,11 -401,60 -65,26 -97,48 -150,83l419 1024c21,-4 123,-47 231,-68 229,-45 486,-10 702,71 17,6 41,17 58,19 13,-40 36,-88 53,-129l157 -385c23,-56 208,-501 208,-520 -53,-33 -66,-57 -149,-94 -208,-92 -416,-88 -637,-43z"></path><path class="fil2" d="M1849 1862l-18 -492c-33,4 -95,57 -118,91 -28,41 -50,97 -48,162 5,119 89,212 184,239z"></path><path class="fil2" d="M2009 1861c94,-20 175,-128 181,-232 4,-68 -15,-115 -44,-163 -18,-29 -71,-81 -114,-94l-23 489z"></path><path class="fil3" d="M1364 2704c-5,4 0,3 -9,3 -4,0 -7,-1 -11,-2 -52,-12 -112,-31 -162,-40 -74,-14 -133,23 -149,76 -16,47 -25,146 -29,200 -6,68 -21,146 -22,213l126 81c93,59 331,182 435,198 35,-155 98,-567 106,-723 5,-85 11,-176 -37,-240 -32,-43 -97,-85 -162,-114 -65,-29 -133,-51 -207,-72 -36,-10 -77,-27 -113,-15 -42,15 -308,97 -320,90 30,-22 337,-117 370,-149 36,-36 25,-95 -29,-105 -37,-6 -214,69 -260,86 -83,33 -169,65 -252,96 -44,16 -91,29 -112,60 -22,34 -15,87 62,91l259 90c175,58 355,106 516,176z"></path><path class="fil3" d="M3076 2359c-1,1 -2,0 -2,1 -1,1 -2,0 -2,0 -14,1 -89,-23 -102,-27 -68,-20 -147,-41 -213,-64 -34,-11 -65,1 -112,15 -146,40 -296,95 -370,186 -48,60 -41,148 -37,238 7,168 73,570 106,724 87,-10 347,-144 429,-194l126 -81c1,-23 -17,-167 -20,-206 -6,-63 -11,-147 -26,-205 -16,-66 -80,-93 -145,-82l-173 43c-18,1 -6,3 -12,-3 89,-33 153,-61 252,-92l390 -127c26,-9 109,-45 127,-47 35,-3 44,0 64,-21 16,-16 20,-43 7,-66 -20,-34 -67,-46 -112,-63l-376 -143c-30,-11 -104,-44 -136,-40 -50,6 -72,63 -35,102 25,25 82,41 120,55 44,16 85,32 126,48 27,10 108,37 126,49z"></path><path class="fil3" d="M2510 2224c7,-21 17,-38 25,-56l372 -813 29 18 -53 107 -266 533c-35,72 -70,140 -107,211zm-1533 -940l48 -28c117,282 231,566 349,848 9,23 45,104 46,119 -18,-34 -37,-76 -56,-116l-166 -353c-7,-14 -218,-455 -221,-470zm-33 66l29 -14 331 719 -360 -705zm1911 -77l45 31c-48,105 -422,936 -433,945l388 -976zm-786 -238c-3,13 -8,15 -4,26 221,-45 430,-49 638,43 83,37 124,74 149,94l-208 520 -157 385 -54 133c-13,-6 -40,-17 -57,-23 -216,-81 -473,-116 -702,-71 -108,21 -210,64 -231,68l-419 -1024c53,-35 85,-57 150,-83 127,-49 262,-67 401,-60 77,3 140,13 213,22l-3 -25c-204,-34 -441,-40 -634,46 -81,36 -149,86 -155,88l-4 3 22 54 -70 43 17 39 -50 27 358 701c11,22 110,221 122,234 16,-3 44,-18 61,-26 159,-64 330,-111 508,-98 216,15 366,81 540,152l468 -936 -50 -36 17 -36 -70 -47 22 -55c-48,-41 -98,-75 -154,-103 -60,-29 -124,-51 -194,-66 -153,-33 -324,-21 -470,11z"></path><path class="fil3" d="M1742 864c-5,-27 -5,-56 -18,-78 -20,-34 -37,7 -39,-51 -3,-77 28,-122 33,-150 1,25 -6,46 -3,76 3,25 10,44 19,63 34,83 3,115 8,140zm58 87c7,-12 7,-30 16,-45 3,-8 7,-14 11,-22 4,-7 26,-41 26,-44 8,-6 11,-18 17,-28 5,-11 17,-17 13,-29 -32,-63 -33,-98 -3,-165 25,-56 39,-92 40,-164 1,0 2,1 2,1 1,1 2,2 2,2 1,1 2,1 2,2 17,19 61,93 65,124 3,33 -14,50 -19,82 -4,29 6,66 3,82l29 51c16,21 40,70 48,97l16 61c45,-22 81,-56 104,-95 69,-116 14,-175 -31,-294 -27,-70 -31,-82 -26,-165 -46,11 -13,93 -59,106 -3,-5 -17,-72 -19,-83 -7,-43 1,-63 6,-98 -47,22 -67,75 -81,117 -5,-88 47,-128 -31,-190 -56,-43 -114,-82 -45,-140 -14,2 -45,23 -53,30 -74,65 39,135 27,181 -6,28 -59,28 -75,99 -12,53 1,115 -12,163 -26,-37 9,-125 -77,-159 -1,18 9,48 9,76 1,137 -116,226 -13,364 21,28 77,77 108,83z"></path><path class="fil3" d="M1044 1965c-57,18 -117,42 -171,63 -58,23 -114,43 -172,66 -39,15 -145,52 -171,65 -67,33 -43,131 42,108 25,-6 58,-21 84,-31l429 -164c74,-40 32,-130 -41,-107z"></path><path class="fil3" d="M2812 1963c-30,5 -56,28 -47,65 8,31 33,43 64,55l343 130c38,14 141,63 178,56 28,-5 53,-30 45,-65 -8,-32 -33,-43 -64,-55l-429 -163c-27,-10 -59,-28 -90,-23z"></path><path class="fil3" d="M988 1819c-77,24 -238,91 -326,123 -30,10 -53,20 -81,31 -22,7 -62,21 -81,31 -68,39 -30,122 42,101l486 -184c71,-36 33,-125 -40,-102z"></path><path class="fil3" d="M2857 1821c-36,15 -45,42 -28,71 14,26 36,31 68,44 51,20 111,44 162,61 73,25 165,64 243,92 26,10 56,27 87,15 25,-9 44,-37 28,-70 -12,-24 -37,-33 -67,-45l-406 -154c-25,-9 -57,-28 -87,-14z"></path><path class="fil3" d="M2905 1675c-26,8 -45,32 -30,66 12,24 34,30 64,41 49,19 101,39 150,57 50,18 99,38 150,57 34,13 124,56 157,44 23,-8 43,-32 30,-63 -11,-25 -34,-33 -62,-43l-301 -115c-34,-12 -124,-56 -158,-44z"></path><path class="fil3" d="M945 1675l-452 171c-66,35 -31,113 36,95l451 -171c66,-30 38,-117 -35,-95z"></path><path class="fil3" d="M884 1545l-326 126c-21,8 -46,16 -66,25 -63,30 -35,102 26,87 19,-5 47,-18 65,-25 23,-9 44,-17 66,-26 44,-17 88,-34 130,-50 42,-16 91,-32 131,-51 61,-28 38,-103 -26,-86z"></path><path class="fil3" d="M2971 1547c-22,8 -40,30 -23,59 10,17 30,26 56,36l260 100c44,17 110,51 141,39 19,-8 34,-33 21,-58 -11,-20 -33,-27 -56,-37 -46,-17 -85,-32 -131,-50 -43,-17 -85,-33 -130,-50 -41,-16 -110,-51 -138,-39z"></path><path class="fil2" d="M1924 1203l2 -5c12,-34 17,-175 16,-227 -1,-78 -8,-153 -19,-229 -21,42 -16,48 -54,115 -21,36 -46,72 -56,118 -16,67 4,151 58,191 12,10 36,30 53,37z"></path><path class="fil2" d="M2467 2249c10,-8 196,-423 217,-471 18,-41 36,-77 54,-118 19,-40 35,-79 55,-119l107 -237 -45 -31 -388 976z"></path><path class="fil2" d="M977 1284c3,15 214,456 221,470l166 353c19,40 38,82 56,116 -1,-15 -37,-96 -46,-119 -18,-41 -34,-81 -50,-122l-100 -242c-33,-81 -66,-161 -99,-242l-100 -242 -48 28z"></path><path class="fil2" d="M1952 1197c24,-14 57,-55 72,-89 19,-41 26,-90 24,-140 -4,-95 -58,-172 -100,-229 0,30 9,74 13,107 3,39 6,79 6,119 2,85 -8,151 -15,232z"></path><path class="fil2" d="M2510 2224c37,-71 72,-139 107,-211l319 -640 -29 -18 -372 813c-8,18 -18,35 -25,56z"></path><path class="fil2" d="M944 1350l102 201c80,164 175,339 258,504l-331 -719 -29 14z"></path><path class="fil1" d="M1849 1862c-95,-27 -179,-120 -184,-239 -2,-65 20,-121 48,-162 23,-34 85,-87 118,-91l18 492zm183 -490c43,13 96,65 114,94 29,48 48,95 44,163 -6,104 -87,212 -181,232l23 -489zm-108 -169c-17,-7 -41,-27 -53,-37 -54,-40 -74,-124 -58,-191 10,-46 35,-82 56,-118 38,-67 33,-73 54,-115 11,76 18,151 19,229 1,52 -4,193 -16,227l-2 5zm100 -95c-15,34 -48,75 -72,89 7,-81 17,-147 15,-232 0,-40 -3,-80 -6,-119 -4,-33 -13,-77 -13,-107 42,57 96,134 100,229 2,50 -5,99 -24,140zm-197 -224c-4,8 -8,14 -11,22 -25,45 -31,82 -31,134 2,59 35,117 84,151 -40,2 -44,-5 -45,20 0,17 4,32 1,53 -45,25 -32,7 -118,61 -8,-7 -18,-17 -26,-25 -29,-36 -20,-33 -58,1 -40,36 -40,22 -6,60 9,10 15,19 24,28 -15,36 -63,80 -72,178 -14,-1 -29,-1 -43,-2 -39,-2 -33,-4 -35,48 -1,25 -5,31 4,38 12,10 54,5 73,6 11,35 13,62 27,97 17,42 34,56 46,79 -14,22 -36,33 -51,53 3,9 48,55 58,62 15,-5 45,-35 55,-50 15,5 47,30 70,41 27,12 53,17 80,28 2,27 -3,124 10,138 8,7 120,7 129,0 9,-8 10,-120 12,-140 79,-13 125,-58 148,-66 9,10 41,45 52,50 9,-4 58,-51 61,-61l-50 -55c33,-47 56,-92 68,-151 0,-4 2,-11 2,-14l4 -10c62,-2 75,11 76,-22 3,-88 8,-65 -79,-69 -8,-98 -56,-142 -73,-178 11,-9 46,-42 52,-53 -3,-10 -50,-58 -61,-61 -14,9 -40,38 -53,51 -15,-5 -67,-49 -114,-57 5,-89 12,-78 -45,-77 13,-20 30,-33 45,-58 14,-22 31,-71 32,-99 5,-141 -16,-172 -94,-288 -8,-15 -17,-26 -27,-39 -11,-15 -16,-27 -25,-41 -21,89 -51,140 -96,217z"></path><path class="fil1" d="M1827 32c282,-21 589,36 822,132 57,24 111,47 165,75 84,45 186,103 260,162 37,29 56,40 99,78 11,11 21,16 32,27l151 148c40,43 53,64 83,99 33,39 100,135 124,174 166,268 265,558 287,903 19,292 -37,580 -133,822 -55,139 -179,367 -287,489 -23,26 -53,68 -83,96 -36,34 -73,78 -120,120l-131 109 -142 98c-283,169 -538,262 -903,287 -351,24 -697,-60 -986,-208 -115,-59 -230,-134 -326,-214 -55,-46 -108,-91 -158,-141 -40,-41 -77,-84 -114,-126 -32,-36 -75,-97 -103,-137 -53,-75 -90,-139 -132,-223 -332,-655 -254,-1453 191,-2026 41,-53 120,-144 167,-191l96 -86c119,-106 238,-188 389,-265 225,-114 464,-181 752,-202zm12 -29c-288,19 -546,89 -769,203 -52,27 -108,55 -154,87l-73 48c-95,66 -185,137 -267,220 -99,100 -179,195 -257,315 -69,103 -128,213 -180,340 -206,507 -183,1112 66,1596 101,194 206,340 355,494 57,59 80,77 140,129l51 41c64,45 79,58 144,100 323,211 741,328 1148,303 243,-14 382,-51 599,-128 63,-22 184,-80 246,-116 81,-46 146,-89 220,-144 25,-18 46,-37 69,-53 26,-19 129,-117 156,-146 11,-12 21,-19 31,-32 17,-20 41,-41 56,-63 16,-23 35,-43 54,-67 103,-127 203,-307 267,-463 211,-517 180,-1100 -66,-1595 -60,-122 -174,-299 -265,-399 -55,-60 -88,-98 -152,-155l-30 -28c-42,-40 -154,-125 -203,-159 -13,-9 -25,-15 -39,-24 -318,-209 -745,-329 -1147,-304z"></path><path class="fil1" d="M2912 698c369,288 606,738 606,1243 0,872 -706,1578 -1578,1578 -871,0 -1578,-706 -1578,-1578 0,-505 238,-955 607,-1243l-390 0c-300,328 -482,764 -482,1243 0,1019 825,1844 1843,1844 1019,0 1844,-825 1844,-1844 0,-479 -183,-915 -482,-1243l-390 0z"></path></g></svg>